<svg width="64" height="64" viewBox="0 0 64 64" fill="none" xmlns="http://www.w3.org/2000/svg">
<g clip-path="url(#clip0_1151_2)">
<rect width="64" height="64" fill="white"/>
<path d="M19.2692 26.648C20.4319 26.648 21.4025 26.7867 22.1812 27.064C22.9599 27.3413 23.5785 27.72 24.0372 28.2C24.5065 28.6693 24.8372 29.2133 25.0292 29.832C25.2319 30.4507 25.3332 31.1013 25.3332 31.784C25.3332 32.4667 25.2212 33.1227 24.9972 33.752C24.7839 34.3813 24.4372 34.9413 23.9572 35.432C23.4879 35.912 22.8639 36.296 22.0852 36.584C21.3172 36.8613 20.3785 37 19.2692 37H13.3492V26.648H19.2692ZM15.4772 35.176H19.2212C19.9892 35.176 20.6239 35.0853 21.1252 34.904C21.6372 34.712 22.0425 34.456 22.3412 34.136C22.6399 33.816 22.8532 33.4533 22.9812 33.048C23.1092 32.6427 23.1732 32.2213 23.1732 31.784C23.1732 31.3467 23.1092 30.9307 22.9812 30.536C22.8532 30.1413 22.6399 29.7893 22.3412 29.48C22.0425 29.1707 21.6372 28.9253 21.1252 28.744C20.6239 28.5627 19.9892 28.472 19.2212 28.472H15.4772V35.176ZM29.5237 25.56V27.384H27.1077V25.56H29.5237ZM27.2677 29.048H29.3477V37H27.2677V29.048ZM30.7009 29.048H32.9089L36.3489 36.68L34.5569 37L30.7009 29.048ZM40.4289 29.048L34.9249 40.2H32.7649L35.1169 35.816L38.2049 29.048H40.4289ZM45.1523 37.176C44.363 37.176 43.643 37.0053 42.9923 36.664C42.3523 36.312 41.8403 35.8267 41.4563 35.208C41.083 34.5787 40.8963 33.8533 40.8963 33.032C40.8963 32.1893 41.0883 31.4587 41.4723 30.84C41.8563 30.2213 42.3736 29.7413 43.0243 29.4C43.6856 29.048 44.4323 28.872 45.2643 28.872C46.1816 28.872 46.9176 29.0587 47.4723 29.432C48.0376 29.7947 48.4483 30.2907 48.7043 30.92C48.9603 31.5493 49.0883 32.2533 49.0883 33.032C49.0883 33.5013 49.0136 33.9813 48.8643 34.472C48.715 34.952 48.4856 35.4 48.1763 35.816C47.867 36.2213 47.4616 36.552 46.9603 36.808C46.459 37.0533 45.8563 37.176 45.1523 37.176ZM45.8243 35.576C46.4536 35.576 46.9976 35.4693 47.4563 35.256C47.915 35.0427 48.267 34.744 48.5123 34.36C48.7576 33.976 48.8803 33.5333 48.8803 33.032C48.8803 32.488 48.7523 32.0293 48.4963 31.656C48.251 31.272 47.899 30.984 47.4403 30.792C46.9923 30.5893 46.4536 30.488 45.8243 30.488C44.939 30.488 44.251 30.7227 43.7603 31.192C43.2696 31.6507 43.0243 32.264 43.0243 33.032C43.0243 33.544 43.1416 33.992 43.3763 34.376C43.611 34.7493 43.9363 35.0427 44.3523 35.256C44.779 35.4693 45.2696 35.576 45.8243 35.576ZM48.8803 29.048H50.9603V37H49.0243C49.0243 37 49.0083 36.8987 48.9763 36.696C48.955 36.4827 48.9336 36.216 48.9123 35.896C48.891 35.576 48.8803 35.2613 48.8803 34.952V29.048Z" fill="black"/>
</g>
<defs>
<clipPath id="clip0_1151_2">
<rect width="64" height="64" fill="white"/>
</clipPath>
</defs>
</svg>
